<?xml version="1.0" encoding="utf-8"?>
<!-- Generator: Adobe Illustrator 16.0.0, SVG Export Plug-In . SVG Version: 6.00 Build 0)  -->
<!DOCTYPE svg PUBLIC "-//W3C//DTD SVG 1.0//EN" "http://www.w3.org/TR/2001/REC-SVG-20010904/DTD/svg10.dtd">
<svg version="1.0" id="Layer_1" xmlns="http://www.w3.org/2000/svg" xmlns:xlink="http://www.w3.org/1999/xlink" x="0px" y="0px"
	 width="100px" height="100px" viewBox="0 0 100 100" enable-background="new 0 0 100 100" xml:space="preserve">
<polygon fill="#455A64" points="10,83.333 10,90 90,90 90,83.333 83.333,83.333 83.333,16.667 66.667,16.667 66.667,10 33.333,10 
	33.333,16.667 16.667,16.667 16.667,83.333 "/>
<polygon fill="#ECEFF1" points="23.333,83.333 46.667,83.333 46.667,76.667 53.333,76.667 53.333,83.333 76.667,83.333 
	76.667,23.333 60,23.333 60,16.667 40,16.667 40,23.333 23.333,23.333 "/>
<rect x="30" y="70" fill="#455A64" width="10" height="6.667"/>
<rect x="46.667" y="63.333" fill="#455A64" width="6.666" height="6.667"/>
<rect x="46.667" y="50" fill="#455A64" width="6.666" height="6.667"/>
<rect x="46.667" y="36.667" fill="#455A64" width="6.666" height="6.666"/>
<rect x="46.667" y="23.333" fill="#455A64" width="6.666" height="6.667"/>
<rect x="60" y="70" fill="#455A64" width="10" height="6.667"/>
<rect x="30" y="56.667" fill="#455A64" width="10" height="6.666"/>
<rect x="60" y="56.667" fill="#455A64" width="10" height="6.666"/>
<rect x="30" y="43.333" fill="#455A64" width="10" height="6.667"/>
<rect x="60" y="43.333" fill="#455A64" width="10" height="6.667"/>
<rect x="30" y="30" fill="#455A64" width="10" height="6.667"/>
<rect x="60" y="30" fill="#455A64" width="10" height="6.667"/>
</svg>
