<?xml version="1.0" encoding="utf-8"?>
<!-- Generator: Adobe Illustrator 16.0.0, SVG Export Plug-In . SVG Version: 6.00 Build 0)  -->
<!DOCTYPE svg PUBLIC "-//W3C//DTD SVG 1.1//EN" "http://www.w3.org/Graphics/SVG/1.1/DTD/svg11.dtd">
<svg version="1.1" id="Layer_1" xmlns="http://www.w3.org/2000/svg" xmlns:xlink="http://www.w3.org/1999/xlink" x="0px" y="0px"
	 width="128px" height="128px" viewBox="0 0 128 128" enable-background="new 0 0 128 128" xml:space="preserve">
<g>
	<g>
		<polygon fill="#282D33" points="114.813,126.21 56.748,126.21 56.748,79.246 27.859,79.246 27.859,126.21 13.188,126.21 
			13.188,66.261 17.188,66.261 17.188,122.21 23.859,122.21 23.859,75.246 60.748,75.246 60.748,122.21 110.813,122.21 
			110.813,66.261 114.813,66.261 		"/>
	</g>
	<g>
		<polygon fill="#282D33" points="27.859,41.666 23.859,41.666 23.859,19.336 41.332,19.336 41.332,27.273 37.332,27.273 
			37.332,23.336 27.859,23.336 		"/>
	</g>
	<g>
		<path fill="#282D33" d="M97.236,78.624v22.587H71.859V78.624H97.236 M101.18,74.682H67.916v30.473h33.264V74.682L101.18,74.682z"
			/>
	</g>
	<g>
		<path fill="#282D33" d="M8.204,77.722L-0.09,65.771L63.997,0.946l64.094,64.824l-8.3,11.95L63.997,21.29L8.204,77.722z
			 M63.997,15.6l55.255,55.886l3.657-5.267L63.997,6.636L5.09,66.22l3.654,5.266L63.997,15.6z"/>
	</g>
	<g>
		<rect x="46.393" y="102.639" fill="#282D33" width="6.773" height="4"/>
	</g>
	<g>
		<rect x="65.539" y="100.275" fill="#282D33" width="38.018" height="4"/>
	</g>
</g>
</svg>
