<?xml version="1.0" encoding="iso-8859-1"?>
<!-- Generator: Adobe Illustrator 19.0.0, SVG Export Plug-In . SVG Version: 6.00 Build 0)  -->
<svg xmlns="http://www.w3.org/2000/svg" xmlns:xlink="http://www.w3.org/1999/xlink" version="1.1" id="Capa_1" x="0px" y="0px" viewBox="0 0 511.999 511.999" style="enable-background:new 0 0 511.999 511.999;" xml:space="preserve">
<path style="fill:#9DA5A8;" d="M350.181,504.5H161.817c-12.462,0-22.564-10.102-22.564-22.564V92.853  c0-12.462,10.102-22.564,22.564-22.564h188.364c12.462,0,22.564,10.102,22.564,22.564v389.083  C372.746,494.398,362.643,504.5,350.181,504.5z"/>
<path style="fill:#8C9293;" d="M372.746,435.784v46.149c0,12.46-10.105,22.564-22.564,22.564H161.817  c-12.459,0-22.564-10.105-22.564-22.564v-46.149c0,12.469,10.105,22.565,22.564,22.565h188.364  C362.641,458.348,372.746,448.253,372.746,435.784z"/>
<rect x="170.649" y="117.38" style="fill:#2389A2;" width="170.71" height="123.61"/>
<polygon style="fill:#3A9DAD;" points="341.352,117.379 341.352,137.491 237.849,240.993 170.646,240.993 170.646,224.315   277.582,117.379 "/>
<rect x="170.649" y="279.21" style="fill:#63B7A9;" width="74.72" height="31.432"/>
<rect x="266.629" y="279.21" style="fill:#E66480;" width="74.72" height="31.432"/>
<g>
	<rect x="170.649" y="335.78" style="fill:#F1E9C5;" width="36.788" height="31.432"/>
	<rect x="237.609" y="335.78" style="fill:#F1E9C5;" width="36.788" height="31.432"/>
	<rect x="304.559" y="336.34" style="fill:#F1E9C5;" width="36.788" height="31.432"/>
	<rect x="170.649" y="389.83" style="fill:#F1E9C5;" width="36.788" height="31.432"/>
	<rect x="237.609" y="389.83" style="fill:#F1E9C5;" width="36.788" height="31.432"/>
	<rect x="304.559" y="389.83" style="fill:#F1E9C5;" width="36.788" height="31.432"/>
	<rect x="170.649" y="442.64" style="fill:#F1E9C5;" width="36.788" height="31.432"/>
	<rect x="237.609" y="442.64" style="fill:#F1E9C5;" width="36.788" height="31.432"/>
	<rect x="304.559" y="442.64" style="fill:#F1E9C5;" width="36.788" height="31.432"/>
</g>
<path style="fill:#9DA5A8;" d="M198.793,21.568v48.72h-28.147v-48.72c0-7.77,6.298-14.068,14.069-14.068  C192.485,7.5,198.793,13.798,198.793,21.568z"/>
<rect x="170.649" y="47.724" style="fill:#8C9293;" width="28.15" height="22.564"/>
<path d="M350.182,62.788H198.789h-20.643V21.571c0-3.624,2.948-6.571,6.571-6.571s6.571,2.948,6.571,6.571v20.717  c0,4.142,3.357,7.5,7.5,7.5s7.5-3.358,7.5-7.5V21.571C206.289,9.677,196.612,0,184.718,0s-21.571,9.677-21.571,21.571v41.217h-1.33  c-16.577,0-30.064,13.487-30.064,30.064v389.083c0,16.578,13.487,30.064,30.064,30.064h188.365  c16.577,0,30.064-13.487,30.064-30.064V92.853C380.246,76.275,366.759,62.788,350.182,62.788z M365.246,481.936  c0,8.307-6.758,15.064-15.064,15.064H161.816c-8.307,0-15.064-6.758-15.064-15.064V92.853c0-8.307,6.758-15.064,15.064-15.064h8.83  h28.143h31.315v9.178c0,4.142,3.357,7.5,7.5,7.5s7.5-3.358,7.5-7.5v-9.178h3.395v9.178c0,4.142,3.357,7.5,7.5,7.5  c4.143,0,7.5-3.358,7.5-7.5v-9.178h3.395v9.178c0,4.142,3.357,7.5,7.5,7.5s7.5-3.358,7.5-7.5v-9.178h68.288  c8.307,0,15.064,6.758,15.064,15.064L365.246,481.936L365.246,481.936z"/>
<path d="M341.352,109.879h-98.353c-4.143,0-7.5,3.358-7.5,7.5s3.357,7.5,7.5,7.5h90.853v108.614H178.146V124.879h23.721  c4.143,0,7.5-3.358,7.5-7.5s-3.357-7.5-7.5-7.5h-31.221c-4.143,0-7.5,3.358-7.5,7.5v123.614c0,4.142,3.357,7.5,7.5,7.5h170.705  c4.143,0,7.5-3.358,7.5-7.5V117.379C348.852,113.237,345.494,109.879,341.352,109.879z"/>
<path d="M170.646,318.145h74.724c4.143,0,7.5-3.358,7.5-7.5v-31.432c0-4.142-3.357-7.5-7.5-7.5h-74.724c-4.143,0-7.5,3.358-7.5,7.5  v31.432C163.146,314.787,166.504,318.145,170.646,318.145z M178.146,286.712h59.724v16.432h-59.724V286.712z"/>
<path d="M341.352,271.712h-74.724c-4.143,0-7.5,3.358-7.5,7.5v31.432c0,4.142,3.357,7.5,7.5,7.5h74.724c4.143,0,7.5-3.358,7.5-7.5  v-31.432C348.852,275.07,345.494,271.712,341.352,271.712z M333.852,303.145h-59.724v-16.432h59.724V303.145z"/>
<path d="M207.435,328.278h-36.788c-4.143,0-7.5,3.358-7.5,7.5v31.432c0,4.142,3.357,7.5,7.5,7.5h36.788c4.143,0,7.5-3.358,7.5-7.5  v-31.432C214.935,331.636,211.577,328.278,207.435,328.278z M199.935,359.71h-21.788v-16.432h21.788V359.71z"/>
<path d="M274.394,328.278h-36.789c-4.143,0-7.5,3.358-7.5,7.5v31.432c0,4.142,3.357,7.5,7.5,7.5h36.789c4.143,0,7.5-3.358,7.5-7.5  v-31.432C281.894,331.636,278.536,328.278,274.394,328.278z M266.894,359.71h-21.789v-16.432h21.789V359.71z"/>
<path d="M341.352,328.837h-36.788c-4.143,0-7.5,3.358-7.5,7.5v31.432c0,4.142,3.357,7.5,7.5,7.5h36.788c4.143,0,7.5-3.358,7.5-7.5  v-31.432C348.852,332.195,345.494,328.837,341.352,328.837z M333.852,360.269h-21.788v-16.432h21.788V360.269z"/>
<path d="M207.435,382.329h-36.788c-4.143,0-7.5,3.358-7.5,7.5v31.432c0,4.142,3.357,7.5,7.5,7.5h36.788c4.143,0,7.5-3.358,7.5-7.5  v-31.432C214.935,385.687,211.577,382.329,207.435,382.329z M199.935,413.761h-21.788v-16.432h21.788V413.761z"/>
<path d="M274.394,382.329h-36.789c-4.143,0-7.5,3.358-7.5,7.5v31.432c0,4.142,3.357,7.5,7.5,7.5h36.789c4.143,0,7.5-3.358,7.5-7.5  v-31.432C281.894,385.687,278.536,382.329,274.394,382.329z M266.894,413.761h-21.789v-16.432h21.789V413.761z"/>
<path d="M341.352,382.329h-36.788c-4.143,0-7.5,3.358-7.5,7.5v31.432c0,4.142,3.357,7.5,7.5,7.5h36.788c4.143,0,7.5-3.358,7.5-7.5  v-31.432C348.852,385.687,345.494,382.329,341.352,382.329z M333.852,413.761h-21.788v-16.432h21.788V413.761z"/>
<path d="M207.435,435.137h-36.788c-4.143,0-7.5,3.358-7.5,7.5v31.432c0,4.142,3.357,7.5,7.5,7.5h36.788c4.143,0,7.5-3.358,7.5-7.5  v-31.432C214.935,438.495,211.577,435.137,207.435,435.137z M199.935,466.569h-21.788v-16.432h21.788V466.569z"/>
<path d="M274.394,435.137h-36.789c-4.143,0-7.5,3.358-7.5,7.5v31.432c0,4.142,3.357,7.5,7.5,7.5h36.789c4.143,0,7.5-3.358,7.5-7.5  v-31.432C281.894,438.495,278.536,435.137,274.394,435.137z M266.894,466.569h-21.789v-16.432h21.789V466.569z"/>
<path d="M341.352,435.137h-36.788c-4.143,0-7.5,3.358-7.5,7.5v31.432c0,4.142,3.357,7.5,7.5,7.5h36.788c4.143,0,7.5-3.358,7.5-7.5  v-31.432C348.852,438.495,345.494,435.137,341.352,435.137z M333.852,466.569h-21.788v-16.432h21.788V466.569z"/>
<g>
</g>
<g>
</g>
<g>
</g>
<g>
</g>
<g>
</g>
<g>
</g>
<g>
</g>
<g>
</g>
<g>
</g>
<g>
</g>
<g>
</g>
<g>
</g>
<g>
</g>
<g>
</g>
<g>
</g>
</svg>
